<?xml version="1.0" encoding="iso-8859-1"?>
<!-- Uploaded to: SVG Repo, www.svgrepo.com, Generator: SVG Repo Mixer Tools -->
<svg fill="#000000" height="800px" width="800px" version="1.1" id="Layer_1" xmlns="http://www.w3.org/2000/svg" xmlns:xlink="http://www.w3.org/1999/xlink" 
	 viewBox="0 0 512 512" xml:space="preserve">
<g>
	<g>
		<g>
			<path d="M204.8,204.8c9.412,0,17.067-7.654,17.067-17.067s-7.654-17.067-17.067-17.067c-9.412,0-17.067,7.654-17.067,17.067
				S195.388,204.8,204.8,204.8z"/>
			<path d="M179.2,273.067c-4.71,0-8.533,3.823-8.533,8.533c0,79.991-65.075,145.067-145.067,145.067
				c-4.71,0-8.533,3.823-8.533,8.533s3.823,8.533,8.533,8.533c89.404,0,162.133-72.73,162.133-162.133
				C187.733,276.89,183.91,273.067,179.2,273.067z"/>
			<path d="M375.467,136.533V281.6c0,37.641,30.626,68.267,68.267,68.267c37.641,0,68.267-30.626,68.267-68.267
				c0-4.71-3.814-8.533-8.533-8.533c-4.719,0-8.533,3.823-8.533,8.533c0,28.237-22.963,51.2-51.2,51.2
				c-28.237,0-51.2-22.963-51.2-51.2V136.533C392.533,61.252,331.281,0,256,0S119.467,61.252,119.467,136.533V281.6
				c0,28.237-22.963,51.2-51.2,51.2s-51.2-22.963-51.2-51.2c0-4.71-3.823-8.533-8.533-8.533S0,276.89,0,281.6
				c0,37.641,30.626,68.267,68.267,68.267c37.641,0,68.267-30.626,68.267-68.267V136.533c0-65.877,53.589-119.467,119.467-119.467
				S375.467,70.656,375.467,136.533z"/>
			<path d="M230.4,273.067c-4.71,0-8.533,3.823-8.533,8.533c0,133.06-33.195,217.865-33.528,218.701
				c-1.741,4.378,0.393,9.344,4.762,11.085c1.041,0.418,2.108,0.614,3.166,0.614c3.388,0,6.588-2.031,7.927-5.359
				c1.417-3.55,34.739-88.44,34.739-225.041C238.933,276.89,235.11,273.067,230.4,273.067z"/>
			<path d="M486.4,426.667c-79.991,0-145.067-65.075-145.067-145.067c0-4.71-3.814-8.533-8.533-8.533
				c-4.719,0-8.533,3.823-8.533,8.533c0,89.404,72.73,162.133,162.133,162.133c4.719,0,8.533-3.823,8.533-8.533
				S491.119,426.667,486.4,426.667z"/>
			<path d="M290.133,281.6c0-4.71-3.814-8.533-8.533-8.533c-4.719,0-8.533,3.823-8.533,8.533
				c0,136.602,33.323,221.491,34.739,225.041c1.331,3.328,4.54,5.359,7.927,5.359c1.05,0,2.125-0.196,3.166-0.614
				c4.378-1.741,6.502-6.707,4.762-11.085C323.328,499.465,290.133,414.66,290.133,281.6z"/>
			<path d="M290.133,187.733c0,9.412,7.654,17.067,17.067,17.067s17.067-7.654,17.067-17.067s-7.654-17.067-17.067-17.067
				S290.133,178.321,290.133,187.733z"/>
		</g>
	</g>
</g>
</svg>